name kv01_filtered_grf.mot
datacolumns 37
datarows 11
range 0.945000 0.950000
endheader
time	1_ground_force_vx	1_ground_force_vy	1_ground_force_vz	1_ground_force_px	1_ground_force_py	1_ground_force_pz	1_ground_torque_x	1_ground_torque_y	1_ground_torque_z	2_ground_force_vx	2_ground_force_vy	2_ground_force_vz	2_ground_force_px	2_ground_force_py	2_ground_force_pz	2_ground_torque_x	2_ground_torque_y	2_ground_torque_z	3_ground_force_vx	3_ground_force_vy	3_ground_force_vz	3_ground_force_px	3_ground_force_py	3_ground_force_pz	3_ground_torque_x	3_ground_torque_y	3_ground_torque_z	4_ground_force_vx	4_ground_force_vy	4_ground_force_vz	4_ground_force_px	4_ground_force_py	4_ground_force_pz	4_ground_torque_x	4_ground_torque_y	4_ground_torque_z
            0.945000	            0.062607	           -0.825004	           -1.008791	            0.450000	            0.000000	            0.900000	           -0.603150	           -0.326751	            0.231831	            0.132852	           -0.692474	           -0.450655	           -0.148868	            0.000000	            0.176960	           -0.148173	            0.000397	           -0.140200	           -0.746869	           -0.077970	           -0.073382	            0.387096	            0.970516	            1.075667	            0.002177	            0.015452	            0.029572	            0.210903	           -0.289439	            0.012132	           -0.368602	            0.969697	            1.108164	           -0.003328	            0.009864	           -0.028577
            0.945500	            0.069403	           -0.979288	           -1.087986	            0.450000	            0.000000	            0.900000	           -0.713936	           -0.355726	            0.276103	            0.139430	           -0.793919	           -0.503306	           -0.148868	            0.000000	            0.176960	           -0.168684	            0.000474	           -0.159637	           -0.746016	           -0.076704	           -0.078477	            0.387097	            0.970514	            1.075665	            0.002311	            0.015290	            0.029549	            0.190743	           -0.303283	            0.002227	           -0.368592	            0.969704	            1.108161	           -0.003350	            0.009803	           -0.029111
            0.946000	            0.076223	           -1.137148	           -1.166055	            0.450000	            0.000000	            0.900000	           -0.827236	           -0.384504	            0.321426	            0.145667	           -0.896960	           -0.556321	           -0.148868	            0.000000	            0.176960	           -0.189478	            0.000552	           -0.179342	           -0.744887	           -0.075310	           -0.083284	            0.387099	            0.970511	            1.075664	            0.002449	            0.015121	            0.029506	            0.170194	           -0.315564	           -0.007386	           -0.368582	            0.969712	            1.108159	           -0.003367	            0.009731	           -0.029616
            0.946500	            0.083035	           -1.297986	           -1.242544	            0.450000	            0.000000	            0.900000	           -0.942616	           -0.412927	            0.367629	            0.151512	           -1.001166	           -0.609451	           -0.148868	            0.000000	            0.176960	           -0.210464	            0.000632	           -0.199231	           -0.743489	           -0.073776	           -0.087768	            0.387101	            0.970509	            1.075662	            0.002592	            0.014943	            0.029443	            0.149284	           -0.326273	           -0.016674	           -0.368572	            0.969720	            1.108156	           -0.003381	            0.009648	           -0.030090
            0.947000	            0.089803	           -1.461154	           -1.316978	            0.450000	            0.000000	            0.900000	           -1.059610	           -0.440834	            0.414529	            0.156914	           -1.106078	           -0.662436	           -0.148868	            0.000000	            0.176960	           -0.231547	            0.000713	           -0.219213	           -0.741829	           -0.072090	           -0.091896	            0.387102	            0.970506	            1.075660	            0.002739	            0.014759	            0.029363	            0.128042	           -0.335404	           -0.025601	           -0.368562	            0.969728	            1.108153	           -0.003393	            0.009553	           -0.030534
            0.947500	            0.096491	           -1.625959	           -1.388870	            0.450000	            0.000000	            0.900000	           -1.177717	           -0.468056	            0.461926	            0.161820	           -1.211206	           -0.714999	           -0.148868	            0.000000	            0.176960	           -0.252627	            0.000795	           -0.239194	           -0.739916	           -0.070238	           -0.095637	            0.387104	            0.970504	            1.075658	            0.002891	            0.014567	            0.029266	            0.106497	           -0.342952	           -0.034133	           -0.368551	            0.969735	            1.108151	           -0.003402	            0.009448	           -0.030947
            0.948000	            0.103062	           -1.791661	           -1.457718	            0.450000	            0.000000	            0.900000	           -1.296403	           -0.494416	            0.509610	            0.166180	           -1.316031	           -0.766853	           -0.148868	            0.000000	            0.176960	           -0.273597	            0.000878	           -0.259073	           -0.737763	           -0.068206	           -0.098965	            0.387105	            0.970502	            1.075656	            0.003046	            0.014369	            0.029153	            0.084678	           -0.348920	           -0.042231	           -0.368543	            0.969742	            1.108147	           -0.003409	            0.009332	           -0.031328
            0.948500	            0.109474	           -1.957474	           -1.523005	            0.450000	            0.000000	            0.900000	           -1.415101	           -0.519736	            0.557356	            0.169940	           -1.420011	           -0.817697	           -0.148868	            0.000000	            0.176960	           -0.294346	            0.000960	           -0.278743	           -0.735382	           -0.065978	           -0.101854	            0.387107	            0.970499	            1.075654	            0.003205	            0.014164	            0.029025	            0.062618	           -0.353311	           -0.049861	           -0.368534	            0.969748	            1.108144	           -0.003415	            0.009205	           -0.031677
            0.949000	            0.115688	           -2.122569	           -1.584208	            0.450000	            0.000000	            0.900000	           -1.533216	           -0.543829	            0.604927	            0.173049	           -1.522574	           -0.867219	           -0.148868	            0.000000	            0.176960	           -0.314756	            0.001042	           -0.298095	           -0.732786	           -0.063535	           -0.104284	            0.387108	            0.970497	            1.075652	            0.003367	            0.013952	            0.028883	            0.040346	           -0.356135	           -0.056988	           -0.368525	            0.969755	            1.108140	           -0.003419	            0.009067	           -0.031995
            0.949500	            0.121661	           -2.286075	           -1.640793	            0.450000	            0.000000	            0.900000	           -1.650119	           -0.566508	            0.652074	            0.175455	           -1.623128	           -0.915096	           -0.148868	            0.000000	            0.176960	           -0.334708	            0.001124	           -0.317013	           -0.729993	           -0.060859	           -0.106238	            0.387110	            0.970495	            1.075650	            0.003532	            0.013734	            0.028727	            0.017896	           -0.357403	           -0.063578	           -0.368516	            0.969762	            1.108137	           -0.003422	            0.008920	           -0.032280
            0.950000	            0.127350	           -2.447082	           -1.692221	            0.450000	            0.000000	            0.900000	           -1.765156	           -0.587579	            0.698536	            0.177108	           -1.721055	           -0.960996	           -0.148868	            0.000000	            0.176960	           -0.354074	            0.001205	           -0.335380	           -0.727018	           -0.057932	           -0.107700	            0.387111	            0.970493	            1.075649	            0.003700	            0.013508	            0.028560	           -0.004699	           -0.357131	           -0.069596	           -0.368507	            0.969768	            1.108133	           -0.003424	            0.008762	           -0.032532
